<svg width="32" height="31" viewBox="0 0 32 31" fill="none" xmlns="http://www.w3.org/2000/svg">
<path d="M20.9286 9.35718C23.161 9.35716 24.9453 10.6089 26.3884 12.6095C27.8356 14.6157 28.8938 17.3184 29.6586 20.0628C30.4214 22.8002 30.8825 25.5431 31.1528 27.6052C31.2879 28.6353 31.375 29.4932 31.4283 30.0929C31.4419 30.2459 31.4533 30.3821 31.4628 30.5H10.3944C10.4039 30.3821 10.4153 30.2459 10.4289 30.0929C10.4822 29.4933 10.5693 28.6353 10.7044 27.6052C10.9747 25.5432 11.4358 22.8003 12.1986 20.0629C12.9634 17.3184 14.0216 14.6158 15.4688 12.6095C16.9119 10.609 18.6962 9.3572 20.9286 9.35718Z" fill="white" stroke="black"/>
<path d="M27.0715 6.64286C27.0715 10.0355 24.3212 12.7857 20.9286 12.7857C17.536 12.7857 14.7858 10.0355 14.7858 6.64286C14.7858 3.25025 17.536 0.5 20.9286 0.5C24.3212 0.5 27.0715 3.25025 27.0715 6.64286Z" fill="white" stroke="black"/>
<path d="M2.59429 17.5814H12.6914M7.77571 12.6657V22.7628M14.2857 17.7143C14.2857 21.383 11.3116 24.3571 7.64286 24.3571C3.97411 24.3571 1 21.383 1 17.7143C1 14.0455 3.97411 11.0714 7.64286 11.0714C11.3116 11.0714 14.2857 14.0455 14.2857 17.7143Z" stroke="black"/>
</svg>
